<svg width="97" height="38" viewBox="0 0 97 38" fill="none" xmlns="http://www.w3.org/2000/svg">
<g clip-path="url(#clip0)">
<path opacity="0.5" d="M42.9812 30.6005C42.7618 30.4282 42.5085 30.3624 42.241 30.3624C41.8943 30.3624 41.6806 30.4745 41.6806 30.7643C41.6806 31.4169 43.3874 31.134 43.3874 32.3215C43.3874 33.0343 42.7477 33.2906 42.1136 33.2906C41.6933 33.2906 41.2532 33.1785 41.014 32.8943L41.3268 32.505C41.5405 32.7164 41.8263 32.8088 42.1674 32.8088C42.5212 32.8088 42.7873 32.7094 42.7873 32.3467C42.7873 31.6409 41.0734 31.9504 41.0734 30.7965C41.0734 30.1636 41.6197 29.8667 42.3005 29.8667C42.6797 29.8667 43.0477 29.9591 43.301 30.2098L42.9812 30.6005Z" fill="#295EA5"/>
<path opacity="0.5" d="M44.4007 28.4441C44.6215 28.4441 44.7871 28.6093 44.7871 28.8264C44.7871 29.0504 44.6201 29.2157 44.4007 29.2157C44.1813 29.2157 44.0143 29.0448 44.0143 28.8264C44.0143 28.6079 44.1813 28.4441 44.4007 28.4441ZM44.7007 29.9355V33.2277H44.1007V29.9355H44.7007Z" fill="#295EA5"/>
<path opacity="0.5" d="M46.3014 29.9354V30.6215C46.4542 30.1594 46.808 29.8569 47.3487 29.8569C47.8426 29.8569 48.1554 30.1146 48.2615 30.6355C48.4285 30.1734 48.7951 29.8569 49.3215 29.8569C49.9216 29.8569 50.2683 30.2588 50.2683 30.952V33.2276H49.6683V31.0907C49.6683 30.6481 49.5749 30.3975 49.2154 30.3975C48.7427 30.3975 48.2955 30.8596 48.2955 32.0527V33.2276H47.6954V31.0766C47.6954 30.6677 47.6091 30.3975 47.2425 30.3975C46.7698 30.3975 46.3297 30.8596 46.3297 32.0527V33.2276H45.7296V29.9354H46.3014Z" fill="#295EA5"/>
<path opacity="0.5" d="M51.8421 29.9354V30.5165C52.0487 30.1076 52.4818 29.8569 52.9488 29.8569C53.2828 29.8569 53.5361 29.9816 53.7088 30.1664C54.0159 30.4899 54.1022 31.0108 54.1022 31.5262C54.1022 32.1325 53.9819 32.6674 53.6281 32.9909C53.4215 33.1758 53.1286 33.2948 52.7677 33.2948C52.4407 33.2948 52.0869 33.1954 51.8605 32.8985V34.8114H51.2604V29.9368H51.8421V29.9354ZM52.1549 30.7195C51.9213 31.0094 51.8421 31.3861 51.8421 31.7558C51.8421 32.0723 51.8959 32.3426 52.0487 32.5204C52.1888 32.6856 52.4153 32.7781 52.7026 32.7781C53.263 32.7781 53.4626 32.4224 53.4626 31.5514C53.4626 30.7336 53.2885 30.3835 52.8356 30.3835C52.5752 30.3835 52.3219 30.5081 52.1549 30.7195Z" fill="#295EA5"/>
<path opacity="0.5" d="M55.4283 28.1792V33.2261H54.8283V28.1792H55.4283Z" fill="#295EA5"/>
<path opacity="0.5" d="M58.1357 33.0357C57.7961 34.1308 57.3885 34.8169 56.6285 34.8169C56.4346 34.8169 56.2478 34.7707 56.1487 34.6979L56.3553 34.2036C56.4487 34.2498 56.5492 34.2694 56.6483 34.2694C57.0488 34.2694 57.2682 33.9459 57.5017 33.2009H57.1479L56.0539 29.9353H56.6936L57.6276 32.9041L58.4683 29.9353H59.1023L58.1357 33.0357Z" fill="#295EA5"/>
<path opacity="0.5" d="M63.7755 29.9354V33.3326C63.7755 34.0916 63.4882 34.824 62.2414 34.824C61.7687 34.824 61.3214 34.719 61.0016 34.4473L61.3144 33.9992C61.5875 34.2177 61.9215 34.2961 62.281 34.2961C63.0679 34.2961 63.1938 33.9334 63.1938 33.313V32.6465C62.9872 33.0624 62.5739 33.2794 62.1069 33.2794C61.7205 33.2794 61.4403 33.1338 61.2606 32.8901C61.0342 32.6003 60.9337 32.1647 60.9337 31.6102C60.9337 31.0501 61.0342 30.5879 61.3271 30.2575C61.5267 30.0334 61.8267 29.8682 62.2668 29.8682C62.6532 29.8682 63.007 29.9928 63.2264 30.3625L63.2391 29.934H63.7755V29.9354ZM62.8485 32.4938C63.0622 32.2698 63.2023 31.9001 63.2023 31.4184C63.2023 31.1089 63.1429 30.805 62.9292 30.6006C62.782 30.4619 62.5824 30.3821 62.3362 30.3821C61.729 30.3821 61.5762 30.8372 61.5762 31.6158C61.5762 32.3804 61.7234 32.7641 62.223 32.7641C62.4423 32.7641 62.6758 32.6857 62.8485 32.4938Z" fill="#295EA5"/>
<path opacity="0.5" d="M66.9683 32.8636C66.715 33.1339 66.4022 33.2921 65.8814 33.2921C65.3818 33.2921 65.062 33.1409 64.8285 32.8958C64.5284 32.5793 64.4548 32.19 64.4548 31.6355C64.4548 31.0347 64.5412 30.6132 64.8553 30.2772C65.1087 30.0069 65.4427 29.8542 65.9423 29.8542C66.4362 29.8542 66.7688 30.0055 66.9952 30.2505C67.2953 30.574 67.3689 30.9829 67.3689 31.5375C67.3689 32.1382 67.2825 32.5205 66.9683 32.8636ZM66.5084 30.574C66.3951 30.455 66.2281 30.3626 65.921 30.3626C65.5814 30.3626 65.4214 30.4746 65.321 30.5936C65.1341 30.8177 65.0804 31.2 65.0804 31.6159C65.0804 32.0836 65.1469 32.3805 65.3139 32.5793C65.4144 32.6984 65.6012 32.7838 65.8871 32.7838C66.2197 32.7838 66.4008 32.6718 66.4999 32.5527C66.6796 32.3357 66.7405 31.959 66.7405 31.5501C66.7419 31.123 66.6754 30.7659 66.5084 30.574Z" fill="#295EA5"/>
<path opacity="0.5" d="M70.4088 32.8636C70.1555 33.1339 69.8427 33.2921 69.3219 33.2921C68.8223 33.2921 68.5024 33.1409 68.2689 32.8958C67.9689 32.5793 67.8953 32.19 67.8953 31.6355C67.8953 31.0347 67.9816 30.6132 68.2958 30.2772C68.5491 30.0069 68.8831 29.8542 69.3827 29.8542C69.8767 29.8542 70.2092 30.0055 70.4357 30.2505C70.7357 30.574 70.8093 30.9829 70.8093 31.5375C70.8093 32.1382 70.723 32.5205 70.4088 32.8636ZM69.9488 30.574C69.8356 30.455 69.6686 30.3626 69.3615 30.3626C69.0218 30.3626 68.8619 30.4746 68.7614 30.5936C68.5746 30.8177 68.5208 31.2 68.5208 31.6159C68.5208 32.0836 68.5874 32.3805 68.7544 32.5793C68.8548 32.6984 69.0416 32.7838 69.3275 32.7838C69.6601 32.7838 69.8413 32.6718 69.9403 32.5527C70.1201 32.3357 70.1809 31.959 70.1809 31.5501C70.1823 31.123 70.1158 30.7659 69.9488 30.574Z" fill="#295EA5"/>
<path opacity="0.5" d="M74.2356 28.1792V33.2261H73.6625V32.6449C73.436 33.0608 73.0086 33.2975 72.543 33.2975C72.2302 33.2975 71.9826 33.1925 71.7901 32.981C71.524 32.6911 71.3966 32.2948 71.3966 31.6353C71.3966 31.0485 71.4971 30.5528 71.8099 30.2307C72.0165 30.0137 72.3166 29.868 72.7567 29.868C73.1303 29.868 73.4502 29.9731 73.637 30.2699V28.1792H74.2356ZM73.2888 32.4937C73.5422 32.2304 73.6554 31.8607 73.6554 31.4112C73.6554 31.0289 73.569 30.7643 73.395 30.5934C73.2421 30.4422 73.0412 30.389 72.8147 30.389C72.1807 30.389 72.0349 30.8175 72.0349 31.6031C72.0349 32.3747 72.1821 32.778 72.6548 32.778C72.8826 32.778 73.1091 32.6855 73.2888 32.4937Z" fill="#295EA5"/>
<path opacity="0.5" d="M77.2289 28.1794V30.567C77.3619 30.1651 77.7554 29.8542 78.2889 29.8542C78.8961 29.8542 79.2555 30.2561 79.2555 30.9493V33.2249H78.6555V31.0543C78.6555 30.6258 78.5422 30.3947 78.1884 30.3947C77.7087 30.3947 77.2289 30.8373 77.2289 32.0766V33.2249H76.6288V28.178H77.2289V28.1794Z" fill="#295EA5"/>
<path opacity="0.5" d="M82.8361 32.7584C82.4766 33.1211 82.0761 33.2933 81.5228 33.2933C81.0557 33.2933 80.7288 33.1687 80.5024 32.9432C80.2363 32.68 80.0962 32.3033 80.0962 31.6759C80.0962 31.155 80.1967 30.6075 80.4896 30.284C80.7033 30.0459 81.0359 29.8555 81.5567 29.8555C82.5163 29.8555 82.8701 30.4884 82.8701 31.267C82.8701 31.3721 82.863 31.5443 82.8503 31.6689L80.7161 31.6815C80.7288 32.3551 80.8364 32.7836 81.5228 32.7836C81.9233 32.7836 82.2502 32.638 82.5092 32.3873L82.8361 32.7584ZM82.2502 31.2082C82.2573 30.6733 82.137 30.3512 81.5497 30.3512C80.9425 30.3512 80.7698 30.6943 80.7359 31.2152L82.2502 31.2082Z" fill="#295EA5"/>
<path opacity="0.5" d="M83.5296 30.3303C83.8424 29.9872 84.25 29.8682 84.7368 29.8682C85.5633 29.8682 85.9907 30.2043 85.9907 31.0683V33.2248H85.4374L85.4303 32.6773C85.2166 33.1002 84.8104 33.2976 84.3703 33.2976C84.0631 33.2976 83.8169 33.2052 83.657 33.047C83.4772 32.8817 83.3909 32.6507 83.3909 32.3412C83.3909 31.9589 83.5239 31.7208 83.7716 31.55C84.0589 31.3525 84.4651 31.2797 84.925 31.2797H85.4048V31.1145C85.4048 30.5473 85.2307 30.3625 84.7184 30.3625C84.3519 30.3625 84.0985 30.4549 83.8579 30.6986L83.5296 30.3303ZM84.8628 31.7292C84.3292 31.7292 84.0023 31.8147 84.0023 32.316C84.0023 32.6255 84.1226 32.8103 84.4552 32.8103C84.8826 32.8103 85.3892 32.4868 85.409 31.7278H84.8628V31.7292Z" fill="#295EA5"/>
<path opacity="0.5" d="M87.4102 29.9353L87.4031 30.5879C87.597 30.0739 87.9438 29.8555 88.3301 29.8555C88.4773 29.8555 88.6174 29.8891 88.7307 29.9479L88.5637 30.5024C88.5042 30.4632 88.3698 30.4436 88.2764 30.4436C87.6961 30.4436 87.4357 31.176 87.4357 31.9616V33.2289H86.8356V29.9367H87.4102V29.9353Z" fill="#295EA5"/>
<path opacity="0.5" d="M89.6435 28.4441C89.8643 28.4441 90.0298 28.6093 90.0298 28.8264C90.0298 29.0504 89.8628 29.2157 89.6435 29.2157C89.4241 29.2157 89.2571 29.0448 89.2571 28.8264C89.2571 28.6079 89.4227 28.4441 89.6435 28.4441ZM89.9435 29.9355V33.2277H89.3434V29.9355H89.9435Z" fill="#295EA5"/>
<path opacity="0.5" d="M91.397 29.9354L91.3899 30.6215C91.5498 30.1594 91.9362 29.8569 92.4768 29.8569C93.1038 29.8569 93.4505 30.2728 93.4505 30.952V33.2276H92.8504V31.0907C92.8504 30.6425 92.7443 30.3975 92.3777 30.3975C91.8583 30.3975 91.4239 30.8918 91.4239 32.0597V33.2276H90.8238V29.9354H91.397Z" fill="#295EA5"/>
<path opacity="0.5" d="M96.983 29.9354V33.3326C96.983 34.0916 96.6957 34.824 95.4489 34.824C94.9762 34.824 94.5289 34.719 94.2091 34.4473L94.5219 33.9992C94.795 34.2177 95.129 34.2961 95.4885 34.2961C96.2754 34.2961 96.4013 33.9334 96.4013 33.313V32.6465C96.1947 33.0624 95.7814 33.2794 95.3144 33.2794C94.928 33.2794 94.6478 33.1338 94.4681 32.8901C94.2416 32.6003 94.1412 32.1647 94.1412 31.6102C94.1412 31.0501 94.2416 30.5879 94.5346 30.2575C94.7341 30.0334 95.0342 29.8682 95.4743 29.8682C95.8607 29.8682 96.2145 29.9928 96.4339 30.3625L96.4466 29.934H96.983V29.9354ZM96.0574 32.4938C96.2711 32.2698 96.4112 31.9001 96.4112 31.4184C96.4112 31.1089 96.3518 30.805 96.1381 30.6006C95.9909 30.4619 95.7913 30.3821 95.5451 30.3821C94.9379 30.3821 94.7851 30.8372 94.7851 31.6158C94.7851 32.3804 94.9323 32.7641 95.4319 32.7641C95.6498 32.7641 95.8833 32.6857 96.0574 32.4938Z" fill="#295EA5"/>
<path d="M20.5848 13.7529H22.8096V18.059C23.2469 17.6851 23.6885 17.4051 24.1314 17.2174C24.5744 17.0312 25.0231 16.9373 25.4773 16.9373C26.3647 16.9373 27.112 17.2412 27.7191 17.8476C28.2385 18.3727 28.4989 19.1443 28.4989 20.1623V26.0032H26.2897V22.1284C26.2897 21.1048 26.2402 20.4116 26.1425 20.0489C26.0434 19.6862 25.8764 19.4146 25.6373 19.2367C25.3995 19.0575 25.1051 18.9692 24.7542 18.9692C24.2999 18.9692 23.9092 19.1177 23.5837 19.416C23.2582 19.7142 23.0318 20.1203 22.9058 20.6343C22.8407 20.9003 22.8068 21.5067 22.8068 22.4547V26.0046H20.582V13.7529H20.5848Z" fill="#3A3A3A"/>
<path d="M39.6171 22.2278H32.4163C32.5196 22.8566 32.7984 23.3565 33.2499 23.7262C33.7014 24.0973 34.2774 24.2821 34.9779 24.2821C35.8158 24.2821 36.5347 23.9922 37.1376 23.4125L39.0256 24.2905C38.5543 24.9515 37.991 25.4402 37.3343 25.7567C36.6777 26.0732 35.8979 26.2314 34.9949 26.2314C33.5938 26.2314 32.4517 25.7945 31.5714 24.9193C30.6897 24.0441 30.2496 22.949 30.2496 21.6326C30.2496 20.2841 30.6883 19.1638 31.5672 18.2732C32.4461 17.3826 33.5471 16.9373 34.8718 16.9373C36.2786 16.9373 37.4221 17.3826 38.3038 18.2732C39.1855 19.1638 39.6256 20.3415 39.6256 21.8035L39.6171 22.2278ZM37.3754 20.4802C37.2268 19.9872 36.9352 19.5867 36.4993 19.2772C36.0634 18.9692 35.5582 18.8137 34.9822 18.8137C34.3566 18.8137 33.8089 18.9874 33.3377 19.3333C33.0419 19.5503 32.7673 19.9312 32.5154 20.4788H37.3754V20.4802Z" fill="#3A3A3A"/>
<path d="M48.0252 17.1655H50.2669V26.0045H48.0252V25.0705C47.5878 25.4822 47.1491 25.7791 46.709 25.9597C46.2688 26.1418 45.7919 26.2314 45.2781 26.2314C44.1247 26.2314 43.127 25.7889 42.2849 24.9025C41.4428 24.0174 41.0225 22.9168 41.0225 21.6004C41.0225 20.2351 41.4301 19.1176 42.2438 18.2452C43.0576 17.3728 44.0483 16.9373 45.213 16.9373C45.7494 16.9373 46.2518 17.0381 46.7217 17.2383C47.1916 17.4386 47.626 17.7397 48.0252 18.1402V17.1655ZM45.6688 18.986C44.9753 18.986 44.4007 19.2282 43.9421 19.7128C43.4836 20.1973 43.2543 20.819 43.2543 21.5766C43.2543 22.3398 43.4879 22.9686 43.9535 23.4615C44.4205 23.9544 44.9937 24.2009 45.6758 24.2009C46.3792 24.2009 46.9637 23.9586 47.4265 23.4741C47.8907 22.9896 48.1214 22.3538 48.1214 21.5696C48.1214 20.8008 47.8893 20.1777 47.4265 19.7016C46.9637 19.224 46.3778 18.986 45.6688 18.986Z" fill="#3A3A3A"/>
<path d="M52.8738 17.1655H54.7957V18.2788C55.0038 17.8405 55.2797 17.5072 55.6251 17.2789C55.9704 17.0507 56.3482 16.9373 56.7587 16.9373C57.0488 16.9373 57.3531 17.0129 57.6701 17.1641L56.9724 19.0728C56.7091 18.9426 56.494 18.8781 56.3242 18.8781C55.9789 18.8781 55.6873 19.0896 55.4496 19.5125C55.2118 19.9354 55.0929 20.763 55.0929 21.9981L55.1014 22.428V26.0031H52.8738V17.1655Z" fill="#3A3A3A"/>
<path d="M59.718 23.6897C60.0732 23.6897 60.3775 23.8129 60.6294 24.0594C60.8813 24.3059 61.0073 24.6055 61.0073 24.957C61.0073 25.3099 60.8813 25.6096 60.6294 25.8588C60.3775 26.1081 60.0732 26.2327 59.718 26.2327C59.3627 26.2327 59.0584 26.1081 58.8065 25.8588C58.5546 25.6096 58.4286 25.3099 58.4286 24.957C58.4286 24.6055 58.5546 24.3059 58.8065 24.0594C59.0584 23.8129 59.3627 23.6897 59.718 23.6897Z" fill="#3A3A3A"/>
<path d="M71.2183 18.9523L69.353 19.9676C69.002 19.6049 68.6553 19.3528 68.3128 19.2114C67.9703 19.0699 67.5684 18.9999 67.1084 18.9999C66.2692 18.9999 65.5913 19.2478 65.0733 19.7421C64.5553 20.2364 64.2963 20.8708 64.2963 21.6438C64.2963 22.3958 64.5454 23.0091 65.045 23.4852C65.5432 23.9614 66.1984 24.1994 67.0094 24.1994C68.0128 24.1994 68.7926 23.8605 69.3516 23.1842L71.1192 24.3815C70.1611 25.6138 68.8096 26.2299 67.0631 26.2299C65.4922 26.2299 64.2624 25.7692 63.3722 24.8492C62.482 23.9278 62.0376 22.8509 62.0376 21.6158C62.0376 20.7602 62.2541 19.9718 62.6858 19.252C63.1174 18.5322 63.7217 17.9651 64.4959 17.5533C65.27 17.1416 66.1362 16.9358 67.0943 16.9358C67.9816 16.9358 68.777 17.1108 69.4832 17.4595C70.1908 17.811 70.7683 18.3081 71.2183 18.9523Z" fill="#3A3A3A"/>
<path d="M77.0973 16.9387C77.9408 16.9387 78.7319 17.1474 79.4749 17.5647C80.2165 17.982 80.7953 18.5477 81.2114 19.2633C81.6275 19.9789 81.8355 20.7505 81.8355 21.5781C81.8355 22.4127 81.6261 23.1927 81.2072 23.9181C80.7882 24.6435 80.2179 25.2106 79.4947 25.6195C78.7715 26.0284 77.9761 26.2329 77.1058 26.2329C75.825 26.2329 74.731 25.782 73.8252 24.8801C72.9194 23.9783 72.4666 22.8832 72.4666 21.5935C72.4666 20.2127 72.9789 19.0617 74.0021 18.1402C74.8994 17.3392 75.9311 16.9387 77.0973 16.9387ZM77.1341 19.0266C76.4378 19.0266 75.8575 19.2661 75.3947 19.7464C74.9319 20.2253 74.6998 20.8387 74.6998 21.5865C74.6998 22.3553 74.9291 22.9784 75.3862 23.4546C75.8434 23.9307 76.4236 24.1701 77.1256 24.1701C77.8275 24.1701 78.4106 23.9293 78.8777 23.4476C79.3433 22.9658 79.5768 22.3455 79.5768 21.5865C79.5768 20.8289 79.3475 20.2127 78.8904 19.738C78.4319 19.2633 77.8474 19.0266 77.1341 19.0266Z" fill="#3A3A3A"/>
<path d="M83.3131 17.1656H85.5548V18.1808C85.9384 17.7635 86.3643 17.4527 86.8328 17.2468C87.3012 17.0409 87.8121 16.9387 88.3655 16.9387C88.9245 16.9387 89.4284 17.0746 89.877 17.3448C90.3256 17.6151 90.6879 18.0114 90.9611 18.5309C91.3163 18.0114 91.7536 17.6151 92.2716 17.3448C92.7896 17.0746 93.3557 16.9387 93.9685 16.9387C94.6039 16.9387 95.163 17.0844 95.6442 17.377C96.1268 17.6697 96.4721 18.052 96.683 18.5225C96.8938 18.993 97 19.7604 97 20.8219V26.0046H94.7426V21.5207C94.7426 20.518 94.6167 19.8403 94.3648 19.486C94.1129 19.1317 93.735 18.9538 93.2311 18.9538C92.8476 18.9538 92.5051 19.0617 92.2008 19.2787C91.8966 19.4958 91.6715 19.794 91.5229 20.1763C91.3758 20.5586 91.3007 21.172 91.3007 22.0164V26.006H89.0434V21.7251C89.0434 20.9339 88.984 20.3612 88.8665 20.0069C88.749 19.6526 88.5721 19.3879 88.3358 19.2143C88.0994 19.0407 87.815 18.9538 87.4796 18.9538C87.1059 18.9538 86.7677 19.0631 86.4634 19.2829C86.1591 19.5028 85.9313 19.8094 85.7798 20.2057C85.6298 20.6006 85.5534 21.2238 85.5534 22.0738V26.006H83.3116V17.1656H83.3131Z" fill="#3A3A3A"/>
<path opacity="0.5" d="M9.65907 19.8122C9.64633 19.5686 9.64067 19.3235 9.64067 19.0756C9.64067 18.8292 9.64633 18.5827 9.65907 18.339C9.95627 10.5867 14.9266 4.01903 21.8656 1.31775C22.4529 1.08949 22.3411 0.235273 21.7142 0.156853L21.6901 0.154053C12.1796 1.32755 4.82032 9.34877 4.82032 19.077C4.82032 28.8039 12.1796 36.8251 21.6887 38H21.6901C22.3227 37.9216 22.436 37.059 21.843 36.8279C14.9167 34.121 9.95627 27.5576 9.65907 19.8122Z" fill="white"/>
<path d="M-3.05176e-05 19.077C-3.05176e-05 25.7371 3.45177 31.5962 8.6783 35.0088C9.00381 35.2217 9.31658 35.464 9.67605 35.6166C9.75672 35.6502 9.83739 35.6768 9.92372 35.6894C10.7757 35.8225 11.4904 35.0215 11.4904 34.1728C11.4904 33.7723 11.3319 33.4096 11.0757 33.138C11.0262 33.0932 10.9781 33.0456 10.9285 32.9993C7.16964 29.5195 4.8189 24.572 4.8189 19.0756C4.8189 9.34876 12.1796 1.32614 21.6887 0.152639C20.899 0.0560142 20.0966 0 19.28 0C8.63159 0 -3.05176e-05 8.54076 -3.05176e-05 19.077Z" fill="#295EA5"/>
<path opacity="0.25" d="M20.9684 4.27384C18.6997 5.62658 16.7396 7.43024 15.2054 9.55738C15.1531 9.62879 15.1007 9.70021 15.0498 9.77303C15.0484 9.77583 15.0455 9.77863 15.0455 9.78143C14.9875 9.93127 14.9832 10.1063 15.088 10.2926C15.1913 10.4774 15.4022 10.5796 15.6173 10.574C15.7107 10.5712 15.8013 10.5306 15.872 10.4802C15.9612 10.4144 16.0291 10.3444 16.1098 10.2688C18.7039 7.81954 22.218 6.31696 26.0873 6.31696C30.0203 6.31696 33.5839 7.87275 36.1908 10.3934C36.1979 10.4004 36.2064 10.4074 36.2135 10.4144C36.355 10.5474 36.5616 10.6132 36.7838 10.553C36.9834 10.4984 37.1447 10.3318 37.19 10.1315C37.19 10.1301 37.1914 10.1273 37.1914 10.1259C37.2197 9.99289 37.1801 9.85425 37.1022 9.74362C37.0442 9.6624 36.9862 9.58118 36.9268 9.49996C35.3969 7.39523 33.4466 5.60838 31.195 4.26824C28.0559 2.39877 24.1031 2.40297 20.9684 4.27384Z" fill="white"/>
<path opacity="0.5" d="M9.65907 19.8122C9.64633 19.5686 9.64067 19.3235 9.64067 19.0756C9.64067 18.8292 9.64633 18.5827 9.65907 18.339C9.95627 10.5867 14.9266 4.01903 21.8656 1.31775C22.4529 1.08949 22.3411 0.235273 21.7142 0.156853L21.6901 0.154053C12.1796 1.32755 4.82032 9.34877 4.82032 19.077C4.82032 28.8039 12.1796 36.8251 21.6887 38H21.6901C22.3227 37.9216 22.436 37.059 21.843 36.8279C14.9167 34.121 9.95627 27.5576 9.65907 19.8122Z" fill="#295EA5"/>
<path opacity="0.25" d="M20.9684 4.27384C18.6997 5.62658 16.7396 7.43024 15.2054 9.55738C15.1531 9.62879 15.1007 9.70021 15.0498 9.77303C15.0484 9.77583 15.0455 9.77863 15.0455 9.78143C14.9875 9.93127 14.9832 10.1063 15.088 10.2926C15.1913 10.4774 15.4022 10.5796 15.6173 10.574C15.7107 10.5712 15.8013 10.5306 15.872 10.4802C15.9612 10.4144 16.0291 10.3444 16.1098 10.2688C18.7039 7.81954 22.218 6.31696 26.0873 6.31696C30.0203 6.31696 33.5839 7.87275 36.1908 10.3934C36.1979 10.4004 36.2064 10.4074 36.2135 10.4144C36.355 10.5474 36.5616 10.6132 36.7838 10.553C36.9834 10.4984 37.1447 10.3318 37.19 10.1315C37.19 10.1301 37.1914 10.1273 37.1914 10.1259C37.2197 9.99289 37.1801 9.85425 37.1022 9.74362C37.0442 9.6624 36.9862 9.58118 36.9268 9.49996C35.3969 7.39523 33.4466 5.60838 31.195 4.26824C28.0559 2.39877 24.1031 2.40297 20.9684 4.27384Z" fill="#295EA5"/>
</g>
<defs>
<clipPath id="clip0">
<rect width="97" height="38" fill="white"/>
</clipPath>
</defs>
</svg>
