<svg width="69" height="17" viewBox="0 0 69 17" fill="none" xmlns="http://www.w3.org/2000/svg">
<g clip-path="url(#clip0)">
<path d="M66.2437 2.23724C64.2651 0.675542 60.5133 0.756427 60.5133 0.756427H54.0675C53.3146 0.756427 53.0533 0.806202 53.1031 1.12974C53.1432 1.20317 53.2014 1.26514 53.2722 1.30978C53.3429 1.35442 53.4239 1.38026 53.5075 1.38484C53.7211 1.4107 53.9195 1.50864 54.07 1.66248C54.2204 1.81632 54.3139 2.01687 54.335 2.23102C54.335 2.7661 54.4159 4.44601 54.4159 5.03087V9.80928C54.4159 10.4315 54.4159 11.5141 54.4159 12.1549V15.1228C54.4159 15.4336 54.5389 15.7317 54.7581 15.9521C54.9773 16.1725 55.2748 16.2971 55.5856 16.2987H59.4307C61.0668 16.2841 62.6863 15.9699 64.2091 15.3717C65.6304 14.7794 66.8413 13.7744 67.6854 12.4866C68.5294 11.1989 68.9679 9.68758 68.944 8.14804C68.9684 7.023 68.7382 5.907 68.2706 4.88345C67.803 3.8599 67.1101 2.95529 66.2437 2.23724ZM59.7356 14.9361H59.5863C58.6903 14.9361 57.7633 14.9361 57.278 14.457C57.1444 14.3035 57.0431 14.1247 56.98 13.9312C56.917 13.7378 56.8935 13.5336 56.9109 13.3309V6.18192C56.9109 4.70733 56.8735 4.0167 56.9109 2.36168C57.7972 2.23721 58.6913 2.17691 59.5863 2.18124C61.2848 2.18124 63.0581 2.41145 64.5638 4.04781C65.5996 5.25623 66.1378 6.81298 66.0695 8.40313C66.0633 12.4038 63.5807 14.9361 59.7356 14.9361ZM53.0782 15.7139C52.8699 15.6292 52.6855 15.4947 52.5412 15.3223C52.397 15.1498 52.2972 14.9446 52.2507 14.7246C52.2507 14.4446 51.9582 1.97592 51.9582 1.97592C51.9582 1.35373 51.9582 0.862199 51.8027 0.79998C51.3637 0.739287 50.9202 0.718462 50.4774 0.737761C50.1134 0.683008 49.7414 0.719348 49.3948 0.843533C49.1708 1.21396 48.9892 1.60842 48.8535 2.01947L47.7149 4.55178L46.6012 6.67967L44.8715 10.0333C44.8419 10.157 44.7714 10.2672 44.6715 10.346C44.5716 10.4248 44.4481 10.4677 44.3209 10.4677C44.1936 10.4677 44.0701 10.4248 43.9702 10.346C43.8703 10.2672 43.7998 10.157 43.7702 10.0333L41.9783 6.72944L40.8584 4.67L39.614 1.99458C39.475 1.58887 39.2979 1.19722 39.0851 0.824867C38.6967 0.71664 38.291 0.684942 37.8905 0.731539H36.36C35.6071 0.731539 35.2649 0.731539 35.3147 1.05508C35.3543 1.12889 35.4124 1.19119 35.4833 1.23589C35.5542 1.28059 35.6354 1.30619 35.7191 1.31018C35.908 1.39462 36.0679 1.53294 36.1785 1.70782C36.2892 1.88269 36.3458 2.08633 36.3413 2.29323C36.3413 2.57322 36.3413 13.9344 36.2791 14.4322C36.2791 14.513 36.2791 14.6001 36.2355 14.6872C36.2164 14.9225 36.1265 15.1465 35.9777 15.3297C35.8289 15.5129 35.6281 15.6468 35.4018 15.7139C35.3181 15.7178 35.2368 15.7434 35.166 15.7881C35.0951 15.8328 35.037 15.8951 34.9974 15.969C34.9476 16.2863 35.296 16.2987 36.0489 16.2987H38.5376C39.2905 16.2987 39.6389 16.2987 39.5953 15.969C39.5557 15.8951 39.4976 15.8328 39.4267 15.7881C39.3558 15.7434 39.2746 15.7178 39.1909 15.7139C38.9724 15.6461 38.7781 15.5167 38.6313 15.3412C38.4845 15.1658 38.3915 14.9516 38.3634 14.7246C38.3071 14.441 38.2676 14.1542 38.2452 13.866C38.2452 13.2438 38.2079 12.1612 38.2141 11.5203V11.3025C38.2141 10.6803 38.2141 9.59774 38.2514 8.95688L38.3136 6.41213C38.3136 5.78994 38.5936 5.70283 38.8985 6.26902L40.5784 9.37997C40.8833 9.94616 42.4947 12.9949 42.7809 13.5673C42.8032 13.6834 42.8484 13.794 42.9139 13.8925C42.9793 13.9909 43.0638 14.0754 43.1623 14.1408C43.2607 14.2063 43.3713 14.2515 43.4874 14.2737C43.6036 14.296 43.723 14.2948 43.8387 14.2704C44.6848 14.2704 44.6848 14.0464 45.0333 13.2998C45.2884 12.7522 48.8908 5.6655 48.8908 5.6655C49.1833 5.09309 49.4384 5.14908 49.457 5.78994C49.457 5.78994 49.5006 14.4259 49.457 14.8179V14.9486C49.4051 15.1307 49.3075 15.2965 49.1736 15.4304C49.0397 15.5643 48.8738 15.6619 48.6917 15.7139C48.6082 15.7184 48.5272 15.7443 48.4564 15.7889C48.3856 15.8336 48.3274 15.8955 48.2873 15.969C48.2375 16.2863 48.586 16.2987 49.3388 16.2987H52.4498C53.2088 16.2987 53.551 16.2987 53.5075 15.969C53.4638 15.8932 53.4014 15.83 53.3262 15.7853C53.251 15.7406 53.1656 15.716 53.0782 15.7139Z" fill="#231F20"/>
<path d="M19.2246 2.29728C19.3416 1.90974 19.5765 1.5683 19.8965 1.32044C20.0091 1.31151 20.1184 1.27857 20.2171 1.22383C20.3159 1.16909 20.4018 1.09384 20.469 1.00312C20.525 0.772912 20.3196 0.710693 19.4983 0.710693H17.0096C16.2567 0.710693 15.9083 0.710693 15.9581 1.04045C15.9982 1.11388 16.0564 1.17585 16.1272 1.22049C16.198 1.26514 16.279 1.29097 16.3625 1.29555C17.078 1.49465 17.5571 1.86174 17.3331 2.60837C17.1091 3.355 13.9982 12.5074 13.9982 12.5074C13.88 12.8372 13.5751 12.9305 13.4818 12.439L11.8703 4.73626C11.7334 4.11407 11.5841 3.29278 11.5281 2.93813C11.4885 2.78705 11.3984 2.65406 11.2727 2.56126C11.1471 2.46845 10.9935 2.42141 10.8375 2.42794C10.6962 2.42407 10.5568 2.46143 10.4363 2.53546C10.3159 2.60948 10.2196 2.71697 10.1593 2.8448C9.95396 3.27411 9.5371 4.08918 9.25089 4.68026L5.15066 12.5572C4.98267 12.8496 4.77113 12.7625 4.74002 12.4141L4.22982 4.43139C4.22982 3.8092 4.1676 2.56482 4.17382 2.36572C4.17514 2.1201 4.25852 1.88198 4.41071 1.6892C4.56291 1.49642 4.77518 1.36005 5.01378 1.30177C5.10151 1.29494 5.18615 1.26633 5.26003 1.21852C5.33391 1.17072 5.39469 1.10524 5.43687 1.02801C5.48664 0.710693 5.11955 0.716915 4.3667 0.716915H1.25576C0.758007 0.729359 0.521575 0.785356 0.558906 1.04668C0.59903 1.1201 0.657235 1.18207 0.728008 1.22672C0.798781 1.27136 0.879779 1.29719 0.963329 1.30177C1.12179 1.34482 1.26846 1.42314 1.39237 1.53089C1.51628 1.63864 1.61422 1.77301 1.67885 1.92396C1.72613 2.03372 1.76767 2.14587 1.80328 2.25994V2.32216V2.36572C1.80209 2.38644 1.80209 2.40721 1.80328 2.42794C1.94826 3.13662 2.05007 3.85346 2.10816 4.57449L2.78634 14.3304C2.77049 14.9987 2.84372 15.6662 3.00411 16.3152C3.19699 16.7196 4.10538 16.6947 4.46625 16.1534C4.5658 15.9979 9.68642 6.38506 9.68642 6.38506C9.98507 5.81265 10.3086 5.86242 10.4642 6.49705L12.0694 14.4175C12.1682 15.0071 12.3075 15.5892 12.4863 16.1597C12.704 16.7321 13.7991 16.6325 14.0915 16.0725C14.3876 15.5026 14.6474 14.9145 14.8693 14.3118C14.8693 14.3118 19.0504 2.80125 19.2246 2.29728ZM32.7199 6.03041C30.7226 6.03041 28.8996 7.85343 27.6988 9.23469C27.7627 8.83714 27.8605 8.4458 27.9912 8.06497L29.8578 1.84308C29.9084 1.7132 29.9254 1.57262 29.9072 1.43441C29.889 1.2962 29.8362 1.16483 29.7536 1.0525C29.6711 0.940158 29.5615 0.850495 29.435 0.791828C29.3086 0.733162 29.1694 0.707393 29.0303 0.716915H27.4561C26.7033 0.716915 26.3549 0.716915 26.3984 1.04668C26.4385 1.1201 26.4967 1.18207 26.5675 1.22672C26.6383 1.27136 26.7193 1.29719 26.8028 1.30177C27.5495 1.51332 27.7983 2.34705 27.5992 3.25545C27.5992 3.18079 25.7327 10.6471 25.7327 10.6471C25.4997 11.3835 25.0969 12.0548 24.5567 12.607C24.5567 12.607 22.2982 15.3633 20.021 15.3633C19.7835 15.3869 19.5436 15.3589 19.318 15.2812C19.0923 15.2035 18.8861 15.0779 18.7135 14.913C18.5409 14.7481 18.406 14.5478 18.3181 14.3259C18.2302 14.104 18.1913 13.8657 18.2042 13.6273C18.1962 13.0686 18.2547 12.511 18.3784 11.9661C20.7552 11.7421 25.0109 10.6471 25.0109 7.61077C25.0109 6.36639 23.835 6.03041 22.8333 6.03041C19.6103 6.03041 16.431 9.96265 16.431 13.4967C16.431 14.9837 17.1216 16.4956 19.1686 16.4956C23.0137 16.4956 25.1043 12.7625 25.2225 12.6194C25.1237 13.114 25.0613 13.6152 25.0358 14.1189C25.0358 15.7428 26.218 16.4956 27.6801 16.4956C28.8365 16.4526 29.9602 16.1002 30.9342 15.4752C31.7718 14.9711 32.5272 14.3416 33.1741 13.6087C34.4094 12.3182 35.1478 10.632 35.2584 8.84893C35.2522 7.19391 34.518 6.0553 32.7385 6.0553L32.7199 6.03041ZM22.3355 6.78326C22.4615 6.77523 22.5877 6.79488 22.7053 6.84082C22.8229 6.88676 22.929 6.95789 23.0161 7.0492C23.1033 7.14051 23.1694 7.2498 23.2098 7.36939C23.2503 7.48898 23.264 7.61596 23.2501 7.74143C23.2501 10.168 20.5623 11.2319 18.5153 11.3688C18.845 9.89421 20.6058 6.78326 22.3355 6.78326ZM32.4648 12.0594C31.9841 13.0383 31.3544 13.9367 30.5982 14.7224C29.9473 15.4463 29.0427 15.8919 28.0721 15.9668C27.0517 15.9668 26.7157 14.9899 26.7157 14.1002C26.7157 11.6115 29.4285 6.98236 32.1848 6.98236C33.2052 6.98236 33.5163 7.69166 33.5163 8.53784C33.4187 9.7714 33.0535 10.9689 32.4461 12.047L32.4648 12.0594Z" fill="#0080C5"/>
<path d="M67.2828 1.66894C67.2828 1.56844 67.3026 1.46892 67.341 1.37607C67.3795 1.28322 67.4359 1.19886 67.5069 1.12779C67.578 1.05673 67.6623 1.00036 67.7552 0.9619C67.848 0.92344 67.9476 0.903645 68.0481 0.903645C68.1486 0.903645 68.2481 0.92344 68.3409 0.9619C68.4338 1.00036 68.5181 1.05673 68.5892 1.12779C68.6603 1.19886 68.7166 1.28322 68.7551 1.37607C68.7936 1.46892 68.8134 1.56844 68.8134 1.66894C68.8134 1.76944 68.7936 1.86895 68.7551 1.9618C68.7166 2.05465 68.6603 2.13902 68.5892 2.21008C68.5181 2.28115 68.4338 2.33752 68.3409 2.37598C68.2481 2.41444 68.1486 2.43423 68.0481 2.43423C67.9476 2.43423 67.848 2.41444 67.7552 2.37598C67.6623 2.33752 67.578 2.28115 67.5069 2.21008C67.4359 2.13902 67.3795 2.05465 67.341 1.9618C67.3026 1.86895 67.2828 1.76944 67.2828 1.66894ZM68.0481 2.61467C68.2328 2.61099 68.4123 2.55294 68.5642 2.44777C68.7161 2.3426 68.8336 2.19498 68.902 2.02338C68.9705 1.85177 68.9868 1.6638 68.949 1.48297C68.9111 1.30213 68.8208 1.13647 68.6893 1.00669C68.5579 0.876907 68.391 0.788775 68.2097 0.753311C68.0284 0.717848 67.8407 0.736629 67.67 0.807305C67.4993 0.877981 67.3532 0.997414 67.25 1.15067C67.1468 1.30392 67.0911 1.48419 67.0899 1.66894C67.0899 1.7939 67.1148 1.91762 67.1631 2.03284C67.2115 2.14806 67.2824 2.25247 67.3716 2.33996C67.4609 2.42745 67.5666 2.49626 67.6828 2.54236C67.7989 2.58846 67.9231 2.61093 68.0481 2.60844V2.61467ZM67.849 1.7436H68.0356L68.3218 2.21647H68.5085L68.1974 1.73738C68.2358 1.73746 68.2738 1.72965 68.309 1.71443C68.3443 1.69921 68.376 1.6769 68.4023 1.64889C68.4285 1.62088 68.4487 1.58777 68.4617 1.55161C68.4746 1.51546 68.4799 1.47704 68.4774 1.43873C68.4801 1.39037 68.4713 1.34204 68.4517 1.29777C68.432 1.25349 68.4021 1.21454 68.3644 1.18413C68.3267 1.15372 68.2823 1.13273 68.2348 1.12291C68.1874 1.11308 68.1383 1.1147 68.0916 1.12763H67.681V2.21024H67.849V1.7436ZM67.849 1.60672V1.26452H68.073C68.1912 1.26452 68.3094 1.26452 68.3094 1.42628C68.3094 1.58805 68.1849 1.6005 68.0418 1.6005H67.849V1.60672Z" fill="#231F20"/>
</g>
<defs>
<clipPath id="clip0">
<rect width="68.4408" height="15.8845" fill="white" transform="translate(0.559174 0.710693)"/>
</clipPath>
</defs>
</svg>
